<svg width="32" height="32" viewBox="0 0 32 32" fill="none" xmlns="http://www.w3.org/2000/svg">
<path d="M10.1335 26.6667H5.60016V12.4H10.1335V26.6667ZM7.86683 10.4C6.40016 10.4 5.3335 9.33337 5.3335 7.86671C5.3335 6.40004 6.5335 5.33337 7.86683 5.33337C9.3335 5.33337 10.4002 6.40004 10.4002 7.86671C10.4002 9.33337 9.3335 10.4 7.86683 10.4ZM26.6668 26.6667H22.1335V18.9334C22.1335 16.6667 21.2002 16 19.8668 16C18.5335 16 17.2002 17.0667 17.2002 19.0667V26.6667H12.6668V12.4H16.9335V14.4C17.3335 13.4667 18.9335 12 21.2002 12C23.7335 12 26.4002 13.4667 26.4002 17.8667V26.6667H26.6668Z" fill="#141414"/>
</svg>
