<svg width="32" height="32" viewBox="0 0 32 32" fill="none" xmlns="http://www.w3.org/2000/svg">
<path d="M6.80005 14.2777C12.5267 11.7827 16.3453 10.1378 18.256 9.34313C23.7113 7.07407 24.8449 6.67991 25.5837 6.66675C25.7462 6.66403 26.1096 6.7043 26.3449 6.89528C26.5437 7.05654 26.5983 7.27437 26.6245 7.42726C26.6507 7.58015 26.6832 7.92844 26.6573 8.20058C26.3617 11.3068 25.0825 18.8446 24.4318 22.3236C24.1564 23.7957 23.6142 24.2892 23.0893 24.3375C21.9485 24.4425 21.0823 23.5837 19.9774 22.8594C18.2485 21.7261 17.2718 21.0206 15.5935 19.9146C13.6541 18.6365 14.9113 17.9341 16.0166 16.7861C16.3059 16.4856 21.3321 11.9139 21.4294 11.4992C21.4416 11.4473 21.4529 11.254 21.338 11.1519C21.2231 11.0498 21.0536 11.0847 20.9313 11.1125C20.7579 11.1518 17.9959 12.9774 12.6454 16.5892C11.8614 17.1275 11.1513 17.3898 10.515 17.376C9.81365 17.3609 8.46446 16.9795 7.46147 16.6534C6.23127 16.2535 5.25352 16.0421 5.33866 15.363C5.38301 15.0092 5.87014 14.6475 6.80005 14.2777Z" fill="#141414"/>
</svg>
