<svg width="32" height="32" viewBox="0 0 32 32" fill="none" xmlns="http://www.w3.org/2000/svg">
<path d="M26.6668 9.31995C25.8668 9.71995 25.0668 9.85328 24.1335 9.98661C25.0668 9.45328 25.7335 8.65328 26.0002 7.58661C25.2002 8.11995 24.2668 8.38661 23.2002 8.65328C22.4002 7.85328 21.2002 7.31995 20.0002 7.31995C17.2002 7.31995 15.0668 9.98661 15.7335 12.6533C12.1335 12.5199 8.9335 10.7866 6.66683 8.11995C5.46683 10.1199 6.1335 12.6533 8.00016 13.9866C7.3335 13.9866 6.66683 13.7199 6.00016 13.4533C6.00016 15.4533 7.46683 17.3199 9.46683 17.8533C8.80016 17.9866 8.1335 18.1199 7.46683 17.9866C8.00016 19.7199 9.60016 21.0533 11.6002 21.0533C10.0002 22.2533 7.60016 22.9199 5.3335 22.6533C7.3335 23.8533 9.60016 24.6533 12.0002 24.6533C20.1335 24.6533 24.6668 17.8533 24.4002 11.5866C25.3335 11.0533 26.1335 10.2533 26.6668 9.31995Z" fill="#141414"/>
</svg>
